# xmcd
#
# Track frame offsets:
#	150
#	17834
#	36014
#	52495
#	73332
#	92372
#	107220
#	124901
#	139024
#	158125
#	176086
#	192402
#	221725
#
# Disc length: 3949 seconds
#
# Revision: 1
# Processed by: cddbd v1.5.2PL0 Copyright (c) Steve Scherf et al.
# Submitted via: audiograbber 1.83.01
#
DISCID=c60f6b0d
DTITLE=All Star Karaoke - ASK93disc1vol13
DYEAR=1900
DGENRE=karaoke
TTITLE0=blake shelton - she wouldn't be gone
TTITLE1=Brooks and Dunn - god must be busy
TTITLE2=Brooks and Dunn - put a girl in it
TTITLE3=Carrie Underwood - just a dream
TTITLE4=Chuck Wicks - stealing cinderella
TTITLE5=Darius Rucker - don't think i don't think about it
TTITLE6=Dierks Bentley - trying to stop your leaving
TTITLE7=George Strait - troubadour
TTITLE8=James Otto - just got started lovin' you
TTITLE9=Jessica Simpson - remember that
TTITLE10=Jimmy Wayne - do you believe me now
TTITLE11=Josh Turner feat. Trisha Yearwood - another try
TTITLE12=data track - Data Track
EXTD=
EXTT0=
EXTT1=
EXTT2=
EXTT3=
EXTT4=
EXTT5=
EXTT6=
EXTT7=
EXTT8=
EXTT9=
EXTT10=
EXTT11=
EXTT12=
PLAYORDER=
